<svg id="visual" viewBox="0 0 900 450" width="900" height="450" xmlns="http://www.w3.org/2000/svg" xmlns:xlink="http://www.w3.org/1999/xlink" version="1.1">
  <rect x="0" y="0" width="900" height="450" fill="#001220"></rect>
  <path d="M0 291L21.5 286.7C43 282.3 86 273.7 128.8 271.5C171.7 269.3 214.3 273.7 257.2 281.8C300 290 343 302 385.8 302.5C428.7 303 471.3 292 514.2 291.8C557 291.7 600 302.3 642.8 309.3C685.7 316.3 728.3 319.7 771.2 311.2C814 302.7 857 282.3 878.5 272.2L900 262L900 451L878.5 451C857 451 814 451 771.2 451C728.3 451 685.7 451 642.8 451C600 451 557 451 514.2 451C471.3 451 428.7 451 385.8 451C343 451 300 451 257.2 451C214.3 451 171.7 451 128.8 451C86 451 43 451 21.5 451L0 451Z" fill="#fa7268"></path>
  <path d="M0 348L21.5 345.3C43 342.7 86 337.3 128.8 336.7C171.7 336 214.3 340 257.2 342.2C300 344.3 343 344.7 385.8 340.3C428.7 336 471.3 327 514.2 324.3C557 321.7 600 325.3 642.8 322C685.7 318.7 728.3 308.3 771.2 303.3C814 298.3 857 298.7 878.5 298.8L900 299L900 451L878.5 451C857 451 814 451 771.2 451C728.3 451 685.7 451 642.8 451C600 451 557 451 514.2 451C471.3 451 428.7 451 385.8 451C343 451 300 451 257.2 451C214.3 451 171.7 451 128.8 451C86 451 43 451 21.5 451L0 451Z" fill="#ef5f67"></path>
  <path d="M0 339L21.5 337.3C43 335.7 86 332.3 128.8 336.7C171.7 341 214.3 353 257.2 361.2C300 369.3 343 373.7 385.8 369.2C428.7 364.7 471.3 351.3 514.2 350.5C557 349.7 600 361.3 642.8 363C685.7 364.7 728.3 356.3 771.2 357.8C814 359.3 857 370.7 878.5 376.3L900 382L900 451L878.5 451C857 451 814 451 771.2 451C728.3 451 685.7 451 642.8 451C600 451 557 451 514.2 451C471.3 451 428.7 451 385.8 451C343 451 300 451 257.2 451C214.3 451 171.7 451 128.8 451C86 451 43 451 21.5 451L0 451Z" fill="#e34c67"></path>
  <path d="M0 391L21.5 388.5C43 386 86 381 128.8 380.5C171.7 380 214.3 384 257.2 387.3C300 390.7 343 393.3 385.8 392.2C428.7 391 471.3 386 514.2 384.5C557 383 600 385 642.8 384.8C685.7 384.7 728.3 382.3 771.2 384C814 385.7 857 391.3 878.5 394.2L900 397L900 451L878.5 451C857 451 814 451 771.2 451C728.3 451 685.7 451 642.8 451C600 451 557 451 514.2 451C471.3 451 428.7 451 385.8 451C343 451 300 451 257.2 451C214.3 451 171.7 451 128.8 451C86 451 43 451 21.5 451L0 451Z" fill="#d53867"></path>
  <path d="M0 417L21.5 416.3C43 415.7 86 414.3 128.8 411.7C171.7 409 214.3 405 257.2 405.5C300 406 343 411 385.8 412.3C428.7 413.7 471.3 411.3 514.2 409.5C557 407.7 600 406.3 642.8 408.3C685.7 410.3 728.3 415.7 771.2 418.5C814 421.3 857 421.7 878.5 421.8L900 422L900 451L878.5 451C857 451 814 451 771.2 451C728.3 451 685.7 451 642.8 451C600 451 557 451 514.2 451C471.3 451 428.7 451 385.8 451C343 451 300 451 257.2 451C214.3 451 171.7 451 128.8 451C86 451 43 451 21.5 451L0 451Z" fill="#c62368"></path>
  <!-- Text with TM superscript -->
  <text x="50%" y="50%" font-family="'Orbitron', sans-serif" font-size="80" fill="white" text-anchor="middle" alignment-baseline="middle">
    dataMyn<tspan font-size="40" dy="-30">™</tspan>
  </text>
</svg>
