<svg width="20" height="20" viewBox="0 0 20 20" fill="none" xmlns="http://www.w3.org/2000/svg">
<path d="M2.5 4.72656C2.5 4.23177 2.67578 3.80859 3.02734 3.45703C3.37891 3.10547 3.80208 2.92969 4.29688 2.92969C4.79167 2.92969 5.21484 3.10547 5.56641 3.45703C5.91797 3.80859 6.09375 4.23177 6.09375 4.72656C6.09375 5.23438 5.91797 5.66406 5.56641 6.01562C5.21484 6.36719 4.79167 6.54297 4.29688 6.54297C3.80208 6.54297 3.37891 6.36719 3.02734 6.01562C2.67578 5.66406 2.5 5.23438 2.5 4.72656ZM2.75391 17.9102V7.91016H5.85938V17.9102H2.75391ZM14.3945 17.9102V13.0469C14.3945 12.4609 14.3229 11.8717 14.1797 11.2793C14.0365 10.6868 13.5677 10.3906 12.7734 10.3906C11.9661 10.3906 11.4551 10.6543 11.2402 11.1816C11.0254 11.709 10.918 12.2982 10.918 12.9492V17.9102H7.8125V7.91016H10.7812V9.27734H10.8398C11.1263 8.78255 11.5169 8.38867 12.0117 8.0957C12.5065 7.80273 13.0534 7.65625 13.6523 7.65625C13.6784 7.65625 13.7012 7.65625 13.7207 7.65625C13.7402 7.65625 13.763 7.65625 13.7891 7.65625H13.7695C15.3451 7.65625 16.3607 8.11198 16.8164 9.02344C17.2721 9.9349 17.5 11.0677 17.5 12.4219V17.9102H14.3945Z" fill="white"/>
</svg>
